# xmcd CD database file
#
# Track frame offsets:
#	150
#	21729
#	43485
#	63835
#	82726
#	104093
#	121646
#	138449
#	158781
#	178342
#	195886
#	214482
#	241461
#	261275
#	277886
#
# Disc length: 3978 seconds
#
# Revision: 0
# Processed by: cddbd v1.5.1PL0 Copyright (c) Steve Scherf et al.
# Submitted via: CDex 1.50
#
DISCID=dc0f880f
DTITLE=Los Titanes - 30 èxitos - cd1
DYEAR=2003
DGENRE=Salsa
TTITLE0=Por retenerte
TTITLE1=Bastò una mirada
TTITLE2=Dèbora
TTITLE3=Sobredosis
TTITLE4=Mìa
TTITLE5=Una palomita
TTITLE6=Lluvia
TTITLE7=A quièn decirle te amo
TTITLE8=Zodiaco
TTITLE9=Aguacero de tormentos
TTITLE10=Apriètala
TTITLE11=Bandolera
TTITLE12=Compàrame
TTITLE13=De què te quejas margoth
TTITLE14=Desnuda
EXTD=YEAR: 2003
EXTT0=
EXTT1=
EXTT2=
EXTT3=
EXTT4=
EXTT5=
EXTT6=
EXTT7=
EXTT8=
EXTT9=
EXTT10=
EXTT11=
EXTT12=
EXTT13=
EXTT14=
PLAYORDER=
